<svg xmlns="http://www.w3.org/2000/svg" xmlns:svg="http://www.w3.org/2000/svg" version="1.1" id="svg1" viewBox="11.56 63.95 179.39 179.37">
  <defs id="defs1" fill="#005b99"/>
  <g id="layer1">
    <path d="m 168.71678,178.55018 h -0.21189 c 4.99008,-3.64141 8.26541,-9.53708 8.26541,-16.18409 0,-11.03984 -8.97824,-20.01816 -20.01813,-20.01816 -11.03986,0 -20.01817,8.97832 -20.01817,20.01816 0,6.64701 3.25608,12.54268 8.26544,16.18409 h -0.23119 c -12.2344,0 -22.19532,9.96086 -22.19532,22.1953 v 0.30803 c -2.85148,-1.32939 -6.03049,-2.10004 -9.38292,-2.10004 h -0.21189 c 4.99008,-3.64147 8.26543,-9.53706 8.26543,-16.18408 0,-11.03991 -8.97831,-20.01816 -20.01816,-20.01816 -11.039862,0 -20.018165,8.97825 -20.018165,20.01816 0,6.64702 3.256082,12.54261 8.265429,16.18408 h -0.211898 c -3.352409,0 -6.531423,0.75136 -9.38292,2.10004 v -0.30803 c 0,-12.23444 -9.960916,-22.1953 -22.195301,-22.1953 h -0.211914 c 4.990104,-3.64141 8.265445,-9.53708 8.265445,-16.18409 0,-11.03984 -8.978319,-20.01816 -20.01816,-20.01816 -11.039862,0 -20.018172,8.97832 -20.018172,20.01816 0,6.64701 3.256086,12.54268 8.265439,16.18409 h -0.211904 c -12.234393,0 -22.195311,9.96086 -22.195311,22.1953 v 19.94112 c 0,1.23305 1.001876,2.2349 2.234947,2.2349 h 53.291873 v 12.52338 c 0,4.33508 3.525805,7.88014 7.880103,7.88014 h 52.578799 c 4.33502,0 7.88011,-3.52584 7.88011,-7.88014 V 222.9215 h 53.29186 c 1.23305,0 2.23497,-1.00185 2.23497,-2.2349 v -19.94112 c -0.0364,-12.23444 -9.99947,-22.1953 -22.23384,-22.1953 z m -27.51296,-16.18409 c 0,-8.57375 6.97457,-15.5483 15.54827,-15.5483 8.57372,0 15.54828,6.97455 15.54828,15.5483 0,8.57367 -6.97456,15.5483 -15.54828,15.5483 -8.5737,0 -15.54827,-6.97463 -15.54827,-15.5483 z m -55.526807,20.40352 c 0,-8.57375 6.974557,-15.54829 15.548277,-15.54829 8.5737,0 15.54827,6.97454 15.54827,15.54829 0,8.57367 -6.97457,15.54823 -15.54827,15.54823 -8.57372,0 -15.548277,-6.97456 -15.548277,-15.54823 z M 30.150194,162.36609 c 0,-8.57375 6.97457,-15.5483 15.548276,-15.5483 8.573718,0 15.548275,6.97455 15.548275,15.5483 0,8.57367 -6.974557,15.5483 -15.548275,15.5483 -8.573706,0 -15.548276,-6.97463 -15.548276,-15.5483 z m 37.088528,56.10484 H 16.008395 v -17.72545 c 0,-9.76827 7.957171,-17.72545 17.725416,-17.72545 h 23.948595 c 9.768246,0 17.725417,7.95718 17.725417,17.72545 v 3.08267 c -4.43135,3.54512 -7.456243,8.72782 -8.169101,14.64278 z m 63.676648,16.97395 c 0,1.8689 -1.52208,3.41027 -3.41022,3.41027 H 74.945429 c -1.888159,0 -3.410235,-1.52207 -3.410235,-3.41027 V 221.1297 c 0,-9.76826 7.957187,-17.72545 17.725433,-17.72545 h 23.948583 c 9.76824,0 17.72542,7.95719 17.72542,17.72545 v 14.31518 z m 55.52678,-16.97395 h -51.23029 c -0.71291,-5.89567 -3.75703,-11.09766 -8.16911,-14.64278 v -3.08267 c 0,-9.76827 7.95718,-17.72545 17.72542,-17.72545 h 23.94861 c 9.7682,0 17.72537,7.95718 17.72537,17.72545 z M 26.73998,122.00222 h 7.37917 l -0.443106,14.18033 c -0.01894,0.90557 0.500923,1.75326 1.329403,2.11933 0.28902,0.13473 0.597264,0.19296 0.886277,0.19296 0.577966,0 1.136737,-0.23156 1.560603,-0.63571 l 16.068484,-15.83731 h 19.652094 20.442036 l 3.352409,19.24751 c 0.250513,1.46425 1.425749,2.54321 2.90929,2.67807 0.09638,0.0219 0.2119,0.0219 0.30824,0.0219 1.34868,0 2.54321,-0.82848 3.02488,-2.11933 l 7.34064,-19.82556 h 18.61169 19.65211 l 16.06844,15.83731 c 0.4238,0.42381 1.00191,0.63571 1.56066,0.63571 0.30802,0 0.59711,-0.0582 0.88629,-0.19296 0.82846,-0.36628 1.3679,-1.19453 1.32939,-2.11933 l -0.44348,-14.18032 h 7.37921 c 8.34246,0 15.12441,-6.41581 15.12441,-14.31525 V 78.269299 c 0,-7.899427 -6.78195,-14.315247 -15.12441,-14.315247 H 129.21989 73.230682 26.73998 c -8.34251,0 -15.124408,6.41582 -15.124408,14.315247 v 29.401061 c 0,7.89936 6.801167,14.33448 15.124408,14.33448 z M 186.36512,78.266688 v 29.401062 c 0,5.43319 -4.77818,9.86454 -10.65455,9.86454 h -9.69116 c -0.59711,0 -1.1753,0.2505 -1.59918,0.67431 -0.42381,0.44346 -0.65537,1.02113 -0.63571,1.6184 l 0.34662,10.90498 -12.75461,-12.56191 c -0.42389,-0.40488 -0.98261,-0.63571 -1.56062,-0.63571 h -13.81426 c 0.38536,-0.88621 0.59726,-1.86884 0.59726,-2.88997 V 71.311421 c 0,-1.021131 -0.2119,-2.003761 -0.59726,-2.889966 h 39.70877 c 5.87638,0 10.65455,4.412042 10.65455,9.845297 z m -57.14523,-9.845314 c 1.59913,0 2.89002,1.290871 2.89002,2.889983 v 43.330953 c 0,1.59911 -1.29089,2.88998 -2.89002,2.88998 h -20.15303 c -0.92481,0 -1.77254,0.57818 -2.10008,1.46432 l -6.31949,17.05107 -2.909289,-16.66578 c -0.19267,-1.05967 -1.117475,-1.84961 -2.196416,-1.84961 H 73.230682 c -1.599144,0 -2.890015,-1.29087 -2.890015,-2.88998 V 71.311357 c 0,-1.599112 1.290871,-2.889983 2.890015,-2.889983 z M 16.08546,78.266688 c 0,-5.433271 4.778159,-9.864605 10.65452,-9.864605 h 39.708799 c -0.385358,0.886286 -0.597272,1.868899 -0.597272,2.889966 v 43.330971 c 0,1.02115 0.211914,2.00376 0.597272,2.89005 h -13.81427 c -0.577964,0 -1.156009,0.23155 -1.56061,0.6357 l -12.754593,12.56191 0.346838,-10.90497 c 0.01894,-0.59712 -0.211904,-1.19453 -0.635785,-1.61842 -0.42388,-0.44273 -1.001869,-0.67431 -1.599141,-0.67431 H 26.73998 c -5.876361,0 -10.65452,-4.43133 -10.65452,-9.8646 z" id="path1" style="stroke-width:1.92668" fill="#005b99"/>
  </g>
</svg>