<svg xmlns="http://www.w3.org/2000/svg" xmlns:svg="http://www.w3.org/2000/svg" version="1.1" id="svg1" viewBox="14.72 60.88 177.39 124.41">
  <defs id="defs1" fill="#005b99"/>
  <g id="layer1">
    <g id="g2" transform="matrix(2.8494778,0,0,2.8494778,-39.057333,-19.392695)">
      <path d="m 74.973084,53.11029 c 0,1.699219 1.377502,3.076661 3.076721,3.076661 1.699157,0 3.07666,-1.377442 3.07666,-3.076661 0,-1.102905 -0.585144,-2.062683 -1.457031,-2.605835 v -8.570312 c 0,-0.651245 -0.390198,-1.239197 -0.990296,-1.49231 L 49.901367,28.296692 c -0.401794,-0.1698 -0.857422,-0.1698 -1.259216,0 L 19.863892,40.441834 c -0.600098,0.253112 -0.990296,0.841064 -0.990296,1.492309 0,0.651245 0.390198,1.239197 0.990296,1.49231 l 6.480163,2.73468 v 16.797119 c 0,4.41626 7.089234,8.87262 22.927735,8.87262 15.83789,0 22.927185,-4.45636 22.927185,-8.87262 V 46.161194 l 4.230652,-1.785462 v 6.129029 c -0.871705,0.543213 -1.456543,1.502807 -1.456543,2.605529 z m -6.013978,9.847962 c 0,1.503906 -4.66571,5.632751 -19.687317,5.632751 -15.021667,0 -19.687866,-4.128845 -19.687866,-5.632751 V 47.528381 l 19.058228,8.042664 c 0.200927,0.0849 0.415527,0.127624 0.629638,0.127624 0.214051,0 0.428711,-0.04272 0.629578,-0.127624 L 68.959106,47.528442 Z M 49.27179,52.320679 24.659851,41.934143 49.27179,31.547058 73.883179,41.934143 Z" id="path1" fill="#005b99"/>
    </g>
  </g>
</svg>