<svg xmlns:inkscape="http://www.inkscape.org/namespaces/inkscape" xmlns:sodipodi="http://sodipodi.sourceforge.net/DTD/sodipodi-0.dtd" xmlns="http://www.w3.org/2000/svg" xmlns:svg="http://www.w3.org/2000/svg" version="1.1" id="svg1" viewBox="45.51 68.79 118.98 105.71">
  <sodipodi:namedview id="namedview1" pagecolor="#ffffff" bordercolor="#005b99" borderopacity="0.25" inkscape:showpageshadow="2" inkscape:pageopacity="0.0" inkscape:pagecheckerboard="0" inkscape:deskcolor="#d1d1d1" inkscape:document-units="mm" fill="#005b99"/>
  <defs id="defs1" fill="#005b99"/>
  <g inkscape:label="Layer 1" inkscape:groupmode="layer" id="layer1">
    <path d="m 161.981,159.81695 -15.80276,-15.79242 c -1.34386,-1.34386 -3.33425,-1.63174 -4.96599,-0.89419 l -10.68481,-10.68481 c 4.98125,-6.64831 7.92647,-14.89875 7.92647,-23.82507 0,-5.3955 -1.08616,-10.538284 -3.04131,-15.236309 l 6.07745,-6.07745 c 1.04574,0.722424 2.31383,1.151838 3.68795,1.151838 3.60713,0 6.5574,-2.935132 6.5574,-6.557392 0,-3.622259 -2.93514,-6.557392 -6.5574,-6.557392 -3.60712,0 -6.55739,2.935133 -6.55739,6.557392 0,1.369082 0.42433,2.637158 1.13669,3.68796 l -5.44593,5.445934 C 127.80454,77.869299 114.23944,68.791667 98.589281,68.791667 c -21.960141,0 -39.834764,17.873327 -39.834764,39.834763 0,5.3955 1.086157,10.53828 3.041311,15.2363 l -6.07745,6.07745 c -1.045743,-0.72242 -2.313833,-1.15183 -3.687959,-1.15183 -3.586821,0.0152 -6.522086,2.95026 -6.522086,6.56244 0,3.60712 2.935133,6.55739 6.557392,6.55739 3.622259,0 6.557392,-2.93513 6.557392,-6.55739 0,-1.36909 -0.42438,-2.63716 -1.151833,-3.68796 l 5.445934,-5.44594 c 6.506825,13.16574 20.07193,22.24338 35.722087,22.24338 8.921665,0 17.176245,-2.95027 23.825075,-7.92648 l 10.68481,10.68481 c -0.25765,0.57088 -0.39911,1.19227 -0.39911,1.83894 0,1.19226 0.4648,2.30362 1.2933,3.14232 l 15.80276,15.79241 c 1.61662,1.61662 3.77888,2.51081 6.07745,2.51081 2.30362,0 4.46083,-0.8942 6.07745,-2.51081 1.59644,-1.63175 2.49063,-3.79401 2.49063,-6.09762 0,-2.29857 -0.8942,-4.46083 -2.5108,-6.07745 z M 145.20827,77.783284 c 2.2784,0 4.12742,1.849025 4.12742,4.127419 0,2.278395 -1.84902,4.127419 -4.12742,4.127419 -2.2784,0 -4.12742,-1.849024 -4.12742,-4.127419 0,-2.278394 1.84902,-4.127419 4.12742,-4.127419 z M 52.065197,139.47214 c -2.2784,0 -4.127419,-1.84903 -4.127419,-4.12742 0,-2.2784 1.849019,-4.12742 4.127419,-4.12742 2.278395,0 4.127419,1.84902 4.127419,4.12742 0,2.27839 -1.864153,4.12742 -4.127419,4.12742 z m 9.154067,-30.84249 c 0,-20.626755 16.772735,-37.404662 37.404664,-37.404662 14.989282,0 27.946802,8.871225 33.908892,21.622588 l -2.93513,2.935133 C 124.54065,83.653031 112.56241,75.089998 98.624573,75.089998 c -18.495404,0 -33.535124,15.039724 -33.535124,33.535132 0,18.4954 15.03972,33.53512 33.535124,33.53512 18.495407,0.005 33.535127,-15.05007 33.535127,-33.52995 0,-3.60713 -0.58097,-7.07277 -1.64183,-10.331227 l 3.02605,-3.02605 c 1.61661,4.147596 2.49566,8.648907 2.49566,13.357147 0,20.62675 -16.77273,37.40466 -37.404659,37.40466 -20.626752,-0.005 -37.415012,-16.77791 -37.415012,-37.40466 z m 68.518746,0 c 0,17.15167 -13.95336,31.10503 -31.10503,31.10503 -13.29636,0 -24.648897,-8.3812 -29.099127,-20.1366 l 9.426956,-9.42695 c 1.045743,0.72242 2.313833,1.15185 3.687955,1.15185 1.980293,0 3.738399,-0.9043 4.940775,-2.30362 l 14.069751,8.12344 c -0.23238,0.6719 -0.38899,1.3943 -0.38899,2.16226 0,3.60713 2.93513,6.55739 6.55739,6.55739 3.62226,0 6.55739,-2.93513 6.55739,-6.55739 0,-1.36908 -0.42438,-2.63716 -1.13669,-3.68796 l 15.3527,-15.3527 c 0.72242,2.64724 1.13669,5.45615 1.13669,8.36606 z m -47.088855,0.2425 c -2.2784,0 -4.127419,-1.84903 -4.127419,-4.12742 0,-2.2784 1.849019,-4.12742 4.127419,-4.12742 2.278395,0 4.127419,1.84902 4.127419,4.12742 0,2.27839 -1.849024,4.12742 -4.127419,4.12742 z m 29.295705,10.41206 c 0,2.27839 -1.84902,4.12742 -4.12742,4.12742 -2.27839,0 -4.12742,-1.84903 -4.12742,-4.12742 0,-2.2784 1.84903,-4.12743 4.12742,-4.12743 2.2784,0 4.12742,1.85407 4.12742,4.12743 z m -0.43953,-5.40559 c -1.04575,-0.72242 -2.31384,-1.13669 -3.68796,-1.13669 -1.98029,0 -3.7384,0.9043 -4.94077,2.30362 l -14.069753,-8.12344 c 0.232377,-0.67191 0.38899,-1.39431 0.38899,-2.16226 0,-3.60713 -2.935132,-6.557394 -6.557392,-6.557394 -3.622259,0 -6.557387,2.935134 -6.557387,6.557394 0,1.36908 0.42438,2.63716 1.136685,3.68796 l -8.563029,8.56303 c -0.747694,-2.66238 -1.151847,-5.48137 -1.151847,-8.3812 0,-17.151669 13.953352,-31.105026 31.105028,-31.105026 13.296355,0 24.648895,8.381199 29.099125,20.136599 z m 17.49439,20.47027 10.28066,10.28065 -4.64267,4.64267 -10.28065,-10.28065 c 1.67222,-1.40944 3.22314,-2.96049 4.64266,-4.64267 z m 31.26152,35.90444 c -1.16195,1.16195 -2.70273,1.79846 -4.35982,1.79846 -1.6571,0 -3.20802,-0.63149 -4.35983,-1.79846 l -15.80275,-15.79242 c -0.37383,-0.37384 -0.58097,-0.87905 -0.58097,-1.4247 0,-0.54565 0.20716,-1.04574 0.58097,-1.42469 l 5.8704,-5.87039 c 0.38899,-0.38899 0.90429,-0.59613 1.42469,-0.59613 0.5153,0 1.03564,0.192 1.42469,0.59613 l 15.79242,15.80276 c 1.16195,1.16195 1.79846,2.70273 1.79846,4.35982 0.0103,1.64689 -0.62645,3.19794 -1.78837,4.34974 z" id="path1" style="stroke-width:1.29329" fill="#005b99"/>
  </g>
</svg>