<svg xmlns="http://www.w3.org/2000/svg" xmlns:svg="http://www.w3.org/2000/svg" version="1.1" id="svg1" viewBox="17.08 68.97 183.06 186.72">
  <defs id="defs1" fill="#005b99"/>
  <g id="layer1">
    <path d="M 19.909852,244.33211 H 158.31715 c 1.56244,0 2.82922,-1.26678 2.82922,-2.82911 v -8.97483 l 14.82126,17.78691 c 2.93828,3.52533 7.11983,5.36953 11.22674,5.36953 2.97561,0 5.91251,-0.96878 8.30792,-2.96449 5.70389,-4.7535 6.22324,-13.56838 1.15622,-19.64801 l -9.56722,-11.48145 c -1.1e-4,-4.2e-4 -3.2e-4,-5.3e-4 -5.3e-4,-8.5e-4 -10e-5,-4.3e-4 -4.3e-4,-4.3e-4 -6.5e-4,-7.5e-4 l -6.98104,-8.37763 c -0.47904,-0.57635 -1.17001,-0.93777 -1.91734,-1.00727 -0.7378,-0.0534 -1.48918,0.16467 -2.0666,0.64477 l -5.85177,4.87649 -4.5652,-5.47785 c 6.66154,-6.41795 10.77796,-14.89471 11.62431,-24.19921 0.93241,-10.25015 -2.18263,-20.25162 -8.77339,-28.15887 -2.20743,-2.64904 -4.71971,-4.88577 -7.41271,-6.7844 V 71.797617 c 0,-1.56244 -1.26678,-2.829115 -2.82922,-2.829115 H 19.909852 c -1.562332,0 -2.829114,1.266675 -2.829114,2.829115 V 241.50246 c 0,1.56234 1.266782,2.82912 2.829114,2.82912 z m 171.970338,4.04201 c -3.30708,2.75598 -8.4944,2.00309 -11.56666,-1.68113 l -7.75682,-9.3091 11.99889,-9.99909 7.75702,9.30941 c 3.06948,3.68294 2.87466,8.92265 -0.432,11.67991 z m -14.30596,-29.3676 3.3598,4.03207 -11.99887,9.99899 -3.36002,-4.03239 6.14647,-5.12176 c 3.1e-4,-1.1e-4 5.3e-4,-3.3e-4 8.5e-4,-5.5e-4 2.1e-4,-9e-5 4.2e-4,-4.2e-4 5.3e-4,-6.3e-4 z m -16.42786,6.32536 v -9.27733 c 0.0749,-0.0534 0.14863,-0.11759 0.22563,-0.17216 l 4.55504,5.46544 z m 3.06671,-61.81975 c 5.62241,6.74676 8.28023,15.27848 7.48456,24.02566 -0.79553,8.74578 -4.94961,16.65849 -11.69646,22.2809 -6.74409,5.62102 -15.26886,8.28579 -24.02568,7.48457 -8.74578,-0.79449 -16.6586,-4.94833 -22.28101,-11.6952 -11.60527,-13.92744 -9.71552,-34.7013 4.21203,-46.30796 13.92604,-11.60666 34.69851,-9.71692 46.30656,4.21203 z M 22.738967,74.627266 H 155.48803 V 149.7978 c -13.1568,-6.2317 -29.30525,-4.75822 -41.20361,5.15641 -3.85402,3.21138 -6.89208,7.03514 -9.15073,11.19776 H 42.095486 c -1.562439,0 -2.829115,1.26679 -2.829115,2.82912 0,1.56244 1.266676,2.82922 2.829115,2.82922 h 60.547844 c -1.8534,5.30772 -2.56458,10.95323 -2.0217,16.53554 H 42.095486 c -1.562439,0 -2.829115,1.26678 -2.829115,2.82921 0,1.56234 1.266676,2.82912 2.829115,2.82912 h 59.546884 c 1.36409,5.4279 3.89038,10.64676 7.70623,15.22598 0.39029,0.46834 0.81907,0.88965 1.22807,1.33586 H 42.087145 c -1.562331,0 -2.829113,1.26678 -2.829113,2.8291 0,1.56245 1.266782,2.82923 2.829113,2.82923 h 74.245915 c 0.19141,0 0.35821,-0.0749 0.53892,-0.10904 5.44213,3.82087 11.79144,6.20495 18.59209,6.82268 1.18937,0.10905 2.37595,0.16254 3.5557,0.16254 5.75136,0 11.34757,-1.28743 16.46795,-3.73086 v 19.3036 H 22.738645 Z" id="path1" style="stroke-width:2.82915" fill="#005b99"/>
    <path d="m 48.64475,151.68712 c 0.01071,0 0.02139,-0.007 0.03208,-0.007 h 28.051839 c 0.01071,2.2e-4 0.02139,0.007 0.03208,0.007 0.01071,0 0.02139,-0.007 0.03208,-0.007 h 11.815707 c 1.562333,0 2.829115,-1.26667 2.829115,-2.8291 v -14.06154 c 0,-10.30084 -7.244515,-18.75515 -16.88198,-19.76947 -0.0083,-0.001 -0.01071,-0.003 -0.02139,-0.004 -0.06417,-0.007 -0.124044,-0.0214 -0.188196,-0.0321 -0.146492,-0.0109 -0.276944,0.0321 -0.419159,0.0427 -0.19461,0.0109 -0.383873,0.009 -0.570998,0.0641 -0.193541,0.0534 -0.360349,0.14435 -0.535712,0.23417 -0.147561,0.0749 -0.295122,0.13468 -0.428784,0.23417 -0.173223,0.13048 -0.304745,0.29512 -0.443753,0.46193 -0.08554,0.0963 -0.187124,0.15826 -0.255559,0.26626 -1.95198,3.08189 -5.315736,4.92063 -8.997179,4.92063 -3.681549,0 -7.045305,-1.83874 -8.997285,-4.92063 -0.06415,-0.0963 -0.156116,-0.1497 -0.226688,-0.23631 -0.147562,-0.18285 -0.291915,-0.35929 -0.480109,-0.50043 -0.121901,-0.0963 -0.256628,-0.14435 -0.39029,-0.21386 -0.183916,-0.0963 -0.361418,-0.19354 -0.566721,-0.247 -0.187125,-0.0534 -0.376388,-0.0534 -0.569928,-0.0641 -0.142216,-0.008 -0.272669,-0.0534 -0.420229,-0.0427 -0.06417,0.005 -0.124043,0.0214 -0.188196,0.0321 -0.0079,0.001 -0.01071,0.003 -0.02139,0.004 -9.63768,1.01475 -16.882514,9.46841 -16.882514,19.76958 v 14.06142 c 0,1.56244 1.266675,2.82922 2.829115,2.82922 h 11.826721 c 0.01071,1.1e-4 0.02139,0.007 0.03207,0.007 z m -9.031716,-16.89759 c 0,-6.75875 4.502224,-12.52358 10.471723,-13.86789 3.070345,3.7533 7.653728,5.94823 12.61457,5.94823 4.960948,0 9.544332,-2.19493 12.614677,-5.94823 5.969497,1.34431 10.471723,7.10914 10.471723,13.86789 v 11.2324 h -6.191588 v -10.91322 c 0,-1.56245 -1.266782,-2.82923 -2.829115,-2.82923 -1.562439,0 -2.829221,1.26678 -2.829221,2.82923 v 10.91322 H 51.473972 v -10.91322 c 0,-1.56245 -1.266782,-2.82923 -2.829222,-2.82923 -1.562332,0 -2.829113,1.26678 -2.829113,2.82923 v 10.91322 h -6.202603 z" id="path2" style="stroke-width:2.82915" fill="#005b99"/>
    <path d="m 62.699327,112.77251 c 8.66431,0 15.713678,-7.04947 15.713678,-15.713675 0,-8.664309 -7.049368,-15.712289 -15.713678,-15.712289 -8.664203,0 -15.713573,7.04798 -15.713573,15.712289 0,8.664205 7.04937,15.713675 15.713573,15.713675 z m 0,-25.767628 c 5.545099,0 10.05545,4.510245 10.05545,10.053953 0,5.544995 -4.510351,10.055345 -10.05545,10.055345 -5.544992,0 -10.055343,-4.51035 -10.055343,-10.055345 0,-5.543708 4.510351,-10.053953 10.055343,-10.053953 z" id="path3" style="stroke-width:2.82915" fill="#005b99"/>
    <path d="m 129.41651,161.81292 c 0.432,1.50021 1.99476,2.36365 3.50331,1.93124 8.27465,-2.3843 17.17101,0.33682 22.67879,6.94575 0.55922,0.67152 1.36344,1.01796 2.17428,1.01796 0.63836,0 1.28058,-0.21599 1.80965,-0.65653 1.20049,-0.99979 1.36206,-2.78357 0.36249,-3.98406 -6.94853,-8.33817 -18.17399,-11.77935 -28.59674,-8.75819 -1.5017,0.43413 -2.36644,2.00309 -1.93124,3.5033 z" id="path4" style="stroke-width:2.82915" fill="#005b99"/>
  </g>
</svg>