<svg xmlns="http://www.w3.org/2000/svg" xmlns:svg="http://www.w3.org/2000/svg" version="1.1" id="svg1" viewBox="12.39 29.83 173.26 144.83">
  <defs id="defs1" fill="#005b99"/>
  <g id="layer1">
    <path d="m 27.476421,143.41822 a 1.8974949,1.8974949 0 0 0 -1.897501,1.8975 v 27.44298 a 1.8974949,1.8974949 0 1 0 3.794989,0 v -27.44298 a 1.8974949,1.8974949 0 0 0 -1.897488,-1.8975 z" id="path1" style="stroke-width:0.372057" fill="#005b99"/>
    <path d="M 183.75559,29.828973 H 18.364719 a 1.8974949,1.8974949 0 0 0 -1.897487,1.897495 V 134.09818 a 30.021346,30.021346 0 0 0 -4.074037,15.13531 v 23.52521 a 1.897495,1.897495 0 0 0 3.79499,0 v -23.52521 a 26.438428,26.438428 0 0 1 26.41611,-26.41611 h 5.978963 c 15.477611,0 19.890219,1.5366 28.681939,4.59864 l 11.340323,3.94009 a 1.8974949,1.8974949 0 0 0 2.027713,-0.51345 l 21.783987,-23.91959 a 5.3055445,5.3055445 0 0 1 6.59658,-0.93386 5.2088095,5.2088095 0 0 1 1.2836,8.01784 l -26.230072,29.24746 a 6.3249829,6.3249829 0 0 1 -5.952924,2.00911 l -17.140699,-5.49157 a 1.8937742,1.8937742 0 0 0 -2.477912,1.80448 v 31.18217 a 1.897495,1.897495 0 1 0 3.79499,0 v -11.824 H 183.75559 a 1.8974949,1.8974949 0 0 0 1.89749,-1.89749 V 31.726468 a 1.8974949,1.8974949 0 0 0 -1.89749,-1.897495 z M 48.300499,118.81032 A 17.11466,17.11466 0 1 1 65.415154,101.69566 17.11466,17.11466 0 0 1 48.300499,118.81032 Z M 181.86925,157.13227 H 72.313114 v -12.95505 l 14.837661,4.74745 a 10.194384,10.194384 0 0 0 9.747913,-3.13644 l 26.230072,-29.24746 a 9.0261228,9.0261228 0 0 0 -2.34024,-13.92613 9.0744902,9.0744902 0 0 0 -11.16173,1.74124 l -20.961746,22.99689 -10.149732,-3.52339 c -6.518453,-2.26955 -10.89758,-3.79499 -19.094013,-4.44609 a 20.898488,20.898488 0 1 0 -22.077904,0.093 30.185052,30.185052 0 0 0 -17.081174,9.44282 V 33.623963 H 181.85809 Z" id="path2" style="stroke-width:0.372057" fill="#005b99"/>
    <path d="m 77.187069,53.469527 h 83.180961 a 1.897495,1.897495 0 1 0 0,-3.79499 H 77.187069 a 1.897495,1.897495 0 1 0 0,3.79499 z" id="path3" style="stroke-width:0.372057" fill="#005b99"/>
    <path d="m 160.36803,68.601119 h -15.85338 a 1.897495,1.897495 0 1 0 0,3.79499 h 15.85338 a 1.897495,1.897495 0 1 0 0,-3.79499 z" id="path4" style="stroke-width:0.372057" fill="#005b99"/>
    <path d="m 77.187069,72.396109 h 48.188921 a 1.897495,1.897495 0 1 0 0,-3.79499 H 77.187069 a 1.897495,1.897495 0 0 0 0,3.79499 z" id="path5" style="stroke-width:0.372057" fill="#005b99"/>
    <path d="m 160.36803,87.5277 h -31.09287 a 1.897495,1.897495 0 0 0 0,3.79499 h 31.09287 a 1.897495,1.897495 0 1 0 0,-3.79499 z" id="path6" style="stroke-width:0.372057" fill="#005b99"/>
    <path d="m 77.187069,91.32269 h 16.299849 a 1.897495,1.897495 0 0 0 0,-3.79499 H 77.187069 a 1.897495,1.897495 0 0 0 0,3.79499 z" id="path7" style="stroke-width:0.372057" fill="#005b99"/>
  </g>
</svg>